<?xml version="1.0" encoding="utf-8"?>
<!-- Generator: Adobe Illustrator 26.0.3, SVG Export Plug-In . SVG Version: 6.00 Build 0)  -->
<svg version="1.1" id="Layer_2" xmlns="http://www.w3.org/2000/svg" xmlns:xlink="http://www.w3.org/1999/xlink" x="0px" y="0px"
	 viewBox="0 0 442.2 102.05" style="enable-background:new 0 0 442.2 102.05;" xml:space="preserve">
<style type="text/css">
	.st0{fill:#00AEEA;}
</style>
<g>
	<g>
		<path class="st0" d="M188.55,64.61v-54.5h-19.83v6.44c0,11.3-0.52,19.44-1.05,23.9c-0.66,8.27-1.84,18.25-9.33,22.85
			c-3.41,1.96-6.83,2.36-10.51,2.63l-1.83-7.88c1.32-0.26,4.6-0.79,6.56-1.84c2.76-1.44,4.86-5.38,5.92-12.22
			c0.52-3.41,1.31-9.71,1.31-27.96V2.11h38.08v62.5H188.55"/>
		<polygon class="st0" points="310.98,64.61 310.98,35.2 283.92,35.2 283.92,64.61 275,64.61 275,2.11 283.92,2.11 283.92,27.58 
			310.98,27.58 310.98,2.11 319.9,2.11 319.9,64.61 		"/>
		<polygon class="st0" points="377.82,64.61 377.82,15.24 377.68,15.24 352.48,64.61 341.84,64.61 341.84,2.11 350.76,2.11 
			350.76,51.61 351.03,51.61 376.24,2.11 386.88,2.11 386.88,64.61 		"/>
		<polygon class="st0" points="423.52,9.72 423.52,64.61 414.58,64.61 414.58,9.72 397.52,9.72 397.52,2.11 440.59,2.11 
			440.59,9.72 		"/>
		<path class="st0" d="M227.89,2.22l-19.81,62.39h8.68l5.03-16.04h26.03l4.85,16.04h9.62L241.98,2.22H227.89z M223.94,41.1
			l10.54-35.92h0.19l10.82,35.92H223.94"/>
	</g>
</g>
<path class="st0" d="M120.55,9.1v-7h-8.5c-19.24,0-36.92,6.61-50.94,17.65C47.08,8.71,29.4,2.11,10.17,2.11h-8.5v7h8.5
	c17.11,0,32.88,5.7,45.53,15.3c-1.72,1.61-3.37,3.28-4.95,5.03C39.39,21.06,25.36,16.1,10.17,16.1h-8.5v7h8.5
	c13.5,0,25.98,4.37,36.12,11.75c-1.41,1.86-2.72,3.78-3.97,5.76C33.31,34,22.19,30.09,10.17,30.09h-8.5v7h8.5
	c10.77,0,20.69,3.59,28.65,9.64c-1.1,2.12-2.11,4.29-3.02,6.52c-6.98-5.72-15.9-9.16-25.62-9.16h-8.5v7h8.5
	c8.95,0,17.08,3.52,23.08,9.25c-0.82,2.67-1.5,5.39-2.04,8.17c-4.83-6.33-12.45-10.42-21.03-10.42h-8.5v7h8.5
	c10.74,0,19.45,8.71,19.45,19.45h0.02v15.37h7V84.52c0-6.02,0.73-11.86,2.06-17.47c3.12,5.08,4.92,11.06,4.92,17.47h0.02v15.37h7
	V84.52c0-6.63,1.06-13.01,3.01-19c2.55,5.82,3.97,12.24,3.97,19h0.02v15.37h7V84.52h0c0-6.76,1.42-13.18,3.97-19
	c1.94,5.98,3.01,12.36,3.01,19h0v15.37h7V84.52h0.02c0-6.4,1.8-12.38,4.92-17.47c1.33,5.61,2.06,11.45,2.06,17.47h0.02v15.37h7
	V84.52c0-10.74,8.71-19.45,19.45-19.45h8.5v-7h-8.5c-8.58,0-16.2,4.09-21.03,10.42c-0.55-2.77-1.23-5.5-2.04-8.17
	c6-5.73,14.13-9.25,23.08-9.25h8.5v-7h-8.5c-9.73,0-18.65,3.44-25.62,9.16c-0.91-2.22-1.93-4.4-3.02-6.52
	c7.96-6.04,17.88-9.64,28.65-9.64h8.5v-7h-8.5c-12.03,0-23.14,3.91-32.15,10.52c-1.25-1.98-2.57-3.9-3.97-5.76
	c10.14-7.39,22.62-11.75,36.12-11.75h8.5v-7h-8.5c-15.2,0-29.23,4.96-40.58,13.34c-1.57-1.75-3.23-3.42-4.95-5.03
	c12.65-9.6,28.42-15.3,45.53-15.3H120.55z M51.7,39.28c1.75,1.6,3.39,3.31,4.94,5.11c-1.43,1.97-2.76,4.03-3.98,6.15
	c-1.53-1.91-3.18-3.71-4.95-5.4C48.96,43.12,50.28,41.17,51.7,39.28z M46.15,66.09c-1.38-2.68-3.04-5.2-4.96-7.49
	c0.89-2.42,1.9-4.78,3.02-7.08c1.81,1.86,3.46,3.87,4.94,6.01C47.97,60.29,46.97,63.15,46.15,66.09z M61.1,65.33
	c-1.09-2.9-2.43-5.68-3.98-8.32c1.19-2.36,2.51-4.65,3.98-6.83c1.47,2.18,2.79,4.46,3.98,6.83C63.53,59.65,62.2,62.43,61.1,65.33z
	 M76.06,66.09c-0.82-2.94-1.82-5.8-3.01-8.56c1.48-2.14,3.14-4.15,4.94-6.01c1.12,2.3,2.13,4.66,3.02,7.08
	C79.09,60.9,77.43,63.41,76.06,66.09z M74.49,45.14c-1.77,1.69-3.42,3.49-4.95,5.4c-1.22-2.12-2.54-4.18-3.98-6.15
	c1.55-1.79,3.2-3.5,4.94-5.11C71.92,41.17,73.25,43.12,74.49,45.14z M66.04,33.87c-1.73,1.57-3.38,3.24-4.94,4.98
	c-1.56-1.74-3.21-3.41-4.94-4.98c1.57-1.73,3.22-3.38,4.94-4.96C62.82,30.49,64.47,32.14,66.04,33.87z"/>
</svg>
